<mxfile host="app.diagrams.net" agent="Mozilla/5.0 (Windows NT 10.0; Win64; x64) AppleWebKit/537.36 (KHTML, like Gecko) Chrome/131.0.0.0 Safari/537.36 Edg/131.0.0.0" version="24.7.17">
  <diagram name="第 1 页" id="871tx0CuNYozfg432vIT">
    <mxGraphModel dx="1678" dy="968" grid="1" gridSize="10" guides="1" tooltips="1" connect="1" arrows="1" fold="1" page="1" pageScale="1" pageWidth="827" pageHeight="1169" math="0" shadow="0">
      <root>
        <mxCell id="0" />
        <mxCell id="1" parent="0" />
        <mxCell id="VvkMW7oBKD9trK85sW6i-4" value="" style="swimlane;startSize=0;opacity=30;" vertex="1" parent="1">
          <mxGeometry x="580" y="20" width="200" height="150" as="geometry">
            <mxRectangle x="290" y="20" width="50" height="40" as="alternateBounds" />
          </mxGeometry>
        </mxCell>
        <mxCell id="VvkMW7oBKD9trK85sW6i-9" style="edgeStyle=orthogonalEdgeStyle;rounded=0;orthogonalLoop=1;jettySize=auto;html=1;exitX=0.5;exitY=1;exitDx=0;exitDy=0;entryX=0.5;entryY=0;entryDx=0;entryDy=0;curved=1;" edge="1" parent="VvkMW7oBKD9trK85sW6i-4" source="VvkMW7oBKD9trK85sW6i-2" target="VvkMW7oBKD9trK85sW6i-8">
          <mxGeometry relative="1" as="geometry">
            <Array as="points">
              <mxPoint x="110" y="80" />
              <mxPoint x="133" y="80" />
            </Array>
          </mxGeometry>
        </mxCell>
        <mxCell id="VvkMW7oBKD9trK85sW6i-10" value="vio" style="edgeLabel;html=1;align=center;verticalAlign=middle;resizable=0;points=[];" vertex="1" connectable="0" parent="VvkMW7oBKD9trK85sW6i-9">
          <mxGeometry x="-0.1143" relative="1" as="geometry">
            <mxPoint as="offset" />
          </mxGeometry>
        </mxCell>
        <mxCell id="VvkMW7oBKD9trK85sW6i-2" value="example" style="rounded=0;whiteSpace=wrap;html=1;" vertex="1" parent="VvkMW7oBKD9trK85sW6i-4">
          <mxGeometry x="70" y="50" width="80" height="20" as="geometry" />
        </mxCell>
        <mxCell id="VvkMW7oBKD9trK85sW6i-5" value="kimera-multi/" style="text;html=1;align=center;verticalAlign=middle;resizable=0;points=[];autosize=1;strokeColor=none;fillColor=none;" vertex="1" parent="VvkMW7oBKD9trK85sW6i-4">
          <mxGeometry x="65" width="90" height="30" as="geometry" />
        </mxCell>
        <mxCell id="VvkMW7oBKD9trK85sW6i-8" value="kimera_vio_jackel.launch" style="shape=hexagon;perimeter=hexagonPerimeter2;whiteSpace=wrap;html=1;fixedSize=1;" vertex="1" parent="VvkMW7oBKD9trK85sW6i-4">
          <mxGeometry x="35" y="100" width="165" height="20" as="geometry" />
        </mxCell>
        <mxCell id="VvkMW7oBKD9trK85sW6i-11" value="" style="swimlane;startSize=0;opacity=30;" vertex="1" parent="1">
          <mxGeometry x="30" y="190" width="450" height="280" as="geometry" />
        </mxCell>
        <mxCell id="VvkMW7oBKD9trK85sW6i-24" style="edgeStyle=orthogonalEdgeStyle;rounded=0;orthogonalLoop=1;jettySize=auto;html=1;exitX=0.5;exitY=1;exitDx=0;exitDy=0;entryX=0.5;entryY=0;entryDx=0;entryDy=0;curved=1;" edge="1" parent="VvkMW7oBKD9trK85sW6i-11" source="VvkMW7oBKD9trK85sW6i-16" target="VvkMW7oBKD9trK85sW6i-23">
          <mxGeometry relative="1" as="geometry" />
        </mxCell>
        <mxCell id="VvkMW7oBKD9trK85sW6i-16" value="kimera_distributed.launch" style="shape=hexagon;perimeter=hexagonPerimeter2;whiteSpace=wrap;html=1;fixedSize=1;" vertex="1" parent="VvkMW7oBKD9trK85sW6i-11">
          <mxGeometry x="10" y="40" width="170" height="20" as="geometry" />
        </mxCell>
        <mxCell id="VvkMW7oBKD9trK85sW6i-17" value="dpgo.launch" style="shape=hexagon;perimeter=hexagonPerimeter2;whiteSpace=wrap;html=1;fixedSize=1;" vertex="1" parent="VvkMW7oBKD9trK85sW6i-11">
          <mxGeometry x="220" y="50" width="110" height="20" as="geometry" />
        </mxCell>
        <mxCell id="VvkMW7oBKD9trK85sW6i-26" style="edgeStyle=orthogonalEdgeStyle;rounded=0;orthogonalLoop=1;jettySize=auto;html=1;exitX=0.5;exitY=1;exitDx=0;exitDy=0;entryX=0.5;entryY=0;entryDx=0;entryDy=0;" edge="1" parent="VvkMW7oBKD9trK85sW6i-11" source="VvkMW7oBKD9trK85sW6i-23" target="VvkMW7oBKD9trK85sW6i-25">
          <mxGeometry relative="1" as="geometry" />
        </mxCell>
        <mxCell id="VvkMW7oBKD9trK85sW6i-23" value="kimera_distributed_loop_closure_ros&lt;span style=&quot;background-color: initial;&quot;&gt;.launch&lt;/span&gt;" style="shape=hexagon;perimeter=hexagonPerimeter2;whiteSpace=wrap;html=1;fixedSize=1;" vertex="1" parent="VvkMW7oBKD9trK85sW6i-11">
          <mxGeometry x="10" y="110" width="260" height="20" as="geometry" />
        </mxCell>
        <mxCell id="VvkMW7oBKD9trK85sW6i-25" value="DistributedLoopClosureNode.cpp" style="shape=hexagon;perimeter=hexagonPerimeter2;whiteSpace=wrap;html=1;fixedSize=1;" vertex="1" parent="VvkMW7oBKD9trK85sW6i-11">
          <mxGeometry x="35" y="170" width="210" height="20" as="geometry" />
        </mxCell>
        <mxCell id="VvkMW7oBKD9trK85sW6i-12" value="kimera_distributed/" style="text;html=1;align=center;verticalAlign=middle;resizable=0;points=[];autosize=1;strokeColor=none;fillColor=none;" vertex="1" parent="VvkMW7oBKD9trK85sW6i-11">
          <mxGeometry x="10" y="-2" width="120" height="30" as="geometry" />
        </mxCell>
        <mxCell id="VvkMW7oBKD9trK85sW6i-18" style="edgeStyle=orthogonalEdgeStyle;rounded=0;orthogonalLoop=1;jettySize=auto;html=1;exitX=0.5;exitY=1;exitDx=0;exitDy=0;curved=1;" edge="1" parent="1" source="VvkMW7oBKD9trK85sW6i-2" target="VvkMW7oBKD9trK85sW6i-17">
          <mxGeometry relative="1" as="geometry">
            <Array as="points">
              <mxPoint x="600" y="90" />
              <mxPoint x="600" y="165" />
              <mxPoint x="305" y="165" />
            </Array>
          </mxGeometry>
        </mxCell>
        <mxCell id="VvkMW7oBKD9trK85sW6i-21" value="dpgo" style="edgeLabel;html=1;align=center;verticalAlign=middle;resizable=0;points=[];" vertex="1" connectable="0" parent="VvkMW7oBKD9trK85sW6i-18">
          <mxGeometry x="0.0494" y="1" relative="1" as="geometry">
            <mxPoint as="offset" />
          </mxGeometry>
        </mxCell>
        <mxCell id="VvkMW7oBKD9trK85sW6i-20" style="edgeStyle=orthogonalEdgeStyle;rounded=0;orthogonalLoop=1;jettySize=auto;html=1;exitX=0.5;exitY=1;exitDx=0;exitDy=0;entryX=0.5;entryY=0;entryDx=0;entryDy=0;curved=1;" edge="1" parent="1" source="VvkMW7oBKD9trK85sW6i-2" target="VvkMW7oBKD9trK85sW6i-16">
          <mxGeometry relative="1" as="geometry">
            <Array as="points">
              <mxPoint x="580" y="90" />
              <mxPoint x="580" y="160" />
              <mxPoint x="125" y="160" />
            </Array>
          </mxGeometry>
        </mxCell>
        <mxCell id="VvkMW7oBKD9trK85sW6i-22" value="frontend" style="edgeLabel;html=1;align=center;verticalAlign=middle;resizable=0;points=[];" vertex="1" connectable="0" parent="VvkMW7oBKD9trK85sW6i-20">
          <mxGeometry x="0.0413" y="-3" relative="1" as="geometry">
            <mxPoint as="offset" />
          </mxGeometry>
        </mxCell>
        <mxCell id="VvkMW7oBKD9trK85sW6i-47" value="" style="swimlane;startSize=0;opacity=30;" vertex="1" parent="1">
          <mxGeometry x="1020" y="600" width="660" height="510" as="geometry" />
        </mxCell>
        <mxCell id="VvkMW7oBKD9trK85sW6i-49" value="kimera_ros" style="text;html=1;align=center;verticalAlign=middle;resizable=0;points=[];autosize=1;strokeColor=none;fillColor=none;" vertex="1" parent="VvkMW7oBKD9trK85sW6i-47">
          <mxGeometry x="10" width="80" height="30" as="geometry" />
        </mxCell>
        <mxCell id="VvkMW7oBKD9trK85sW6i-53" style="edgeStyle=orthogonalEdgeStyle;shape=connector;curved=1;rounded=0;orthogonalLoop=1;jettySize=auto;html=1;exitX=0.5;exitY=1;exitDx=0;exitDy=0;entryX=0.5;entryY=0;entryDx=0;entryDy=0;strokeColor=default;align=center;verticalAlign=middle;fontFamily=Helvetica;fontSize=12;fontColor=default;fontStyle=1;labelBackgroundColor=default;endArrow=classic;" edge="1" parent="VvkMW7oBKD9trK85sW6i-47" source="VvkMW7oBKD9trK85sW6i-50" target="VvkMW7oBKD9trK85sW6i-52">
          <mxGeometry relative="1" as="geometry" />
        </mxCell>
        <mxCell id="VvkMW7oBKD9trK85sW6i-54" value="节点:kimera_vio_ros_node" style="edgeLabel;html=1;align=center;verticalAlign=middle;resizable=0;points=[];opacity=30;strokeColor=default;fontFamily=Helvetica;fontSize=12;fontColor=default;fontStyle=1;fillColor=default;" vertex="1" connectable="0" parent="VvkMW7oBKD9trK85sW6i-53">
          <mxGeometry x="-0.25" y="2" relative="1" as="geometry">
            <mxPoint as="offset" />
          </mxGeometry>
        </mxCell>
        <mxCell id="VvkMW7oBKD9trK85sW6i-50" value="kimera_vio_ros.launch" style="shape=hexagon;perimeter=hexagonPerimeter2;whiteSpace=wrap;html=1;fixedSize=1;" vertex="1" parent="VvkMW7oBKD9trK85sW6i-47">
          <mxGeometry x="20" y="40" width="165" height="20" as="geometry" />
        </mxCell>
        <mxCell id="VvkMW7oBKD9trK85sW6i-56" style="edgeStyle=orthogonalEdgeStyle;shape=connector;curved=1;rounded=0;orthogonalLoop=1;jettySize=auto;html=1;exitX=0.5;exitY=1;exitDx=0;exitDy=0;entryX=0.5;entryY=0;entryDx=0;entryDy=0;strokeColor=default;align=center;verticalAlign=middle;fontFamily=Helvetica;fontSize=12;fontColor=default;fontStyle=1;labelBackgroundColor=default;endArrow=classic;" edge="1" parent="VvkMW7oBKD9trK85sW6i-47" source="VvkMW7oBKD9trK85sW6i-52" target="VvkMW7oBKD9trK85sW6i-55">
          <mxGeometry relative="1" as="geometry" />
        </mxCell>
        <mxCell id="VvkMW7oBKD9trK85sW6i-57" value="&lt;span style=&quot;font-weight: normal;&quot;&gt;创建实例&lt;/span&gt;" style="edgeLabel;html=1;align=center;verticalAlign=middle;resizable=0;points=[];opacity=30;strokeColor=default;fontFamily=Helvetica;fontSize=12;fontColor=default;fontStyle=1;fillColor=default;" vertex="1" connectable="0" parent="VvkMW7oBKD9trK85sW6i-56">
          <mxGeometry x="-0.2" y="1" relative="1" as="geometry">
            <mxPoint as="offset" />
          </mxGeometry>
        </mxCell>
        <mxCell id="VvkMW7oBKD9trK85sW6i-52" value="KimeraVioRosNode.cpp" style="shape=hexagon;perimeter=hexagonPerimeter2;whiteSpace=wrap;html=1;fixedSize=1;" vertex="1" parent="VvkMW7oBKD9trK85sW6i-47">
          <mxGeometry x="20" y="100" width="165" height="20" as="geometry" />
        </mxCell>
        <mxCell id="VvkMW7oBKD9trK85sW6i-70" value="" style="edgeStyle=orthogonalEdgeStyle;shape=connector;curved=1;rounded=0;orthogonalLoop=1;jettySize=auto;html=1;strokeColor=default;align=center;verticalAlign=middle;fontFamily=Helvetica;fontSize=12;fontColor=default;fontStyle=1;labelBackgroundColor=default;endArrow=classic;" edge="1" parent="VvkMW7oBKD9trK85sW6i-47" source="VvkMW7oBKD9trK85sW6i-55" target="VvkMW7oBKD9trK85sW6i-69">
          <mxGeometry relative="1" as="geometry" />
        </mxCell>
        <mxCell id="VvkMW7oBKD9trK85sW6i-55" value="kimera_vio_ros" style="ellipse;whiteSpace=wrap;html=1;" vertex="1" parent="VvkMW7oBKD9trK85sW6i-47">
          <mxGeometry x="58.25" y="160" width="88.5" height="30" as="geometry" />
        </mxCell>
        <mxCell id="VvkMW7oBKD9trK85sW6i-66" style="edgeStyle=orthogonalEdgeStyle;shape=connector;curved=1;rounded=0;orthogonalLoop=1;jettySize=auto;html=1;exitX=0.5;exitY=1;exitDx=0;exitDy=0;entryX=0.5;entryY=0;entryDx=0;entryDy=0;strokeColor=default;align=center;verticalAlign=middle;fontFamily=Helvetica;fontSize=12;fontColor=default;fontStyle=1;labelBackgroundColor=default;endArrow=classic;dashed=1;" edge="1" parent="VvkMW7oBKD9trK85sW6i-47" source="VvkMW7oBKD9trK85sW6i-64" target="VvkMW7oBKD9trK85sW6i-65">
          <mxGeometry relative="1" as="geometry" />
        </mxCell>
        <mxCell id="VvkMW7oBKD9trK85sW6i-64" value="KimeraVioRos.h" style="shape=hexagon;perimeter=hexagonPerimeter2;whiteSpace=wrap;html=1;fixedSize=1;" vertex="1" parent="VvkMW7oBKD9trK85sW6i-47">
          <mxGeometry x="200" y="40" width="140" height="20" as="geometry" />
        </mxCell>
        <mxCell id="VvkMW7oBKD9trK85sW6i-67" style="edgeStyle=orthogonalEdgeStyle;shape=connector;curved=1;rounded=0;orthogonalLoop=1;jettySize=auto;html=1;exitX=0.5;exitY=1;exitDx=0;exitDy=0;entryX=1;entryY=0.5;entryDx=0;entryDy=0;strokeColor=default;align=center;verticalAlign=middle;fontFamily=Helvetica;fontSize=12;fontColor=default;fontStyle=1;labelBackgroundColor=default;endArrow=classic;" edge="1" parent="VvkMW7oBKD9trK85sW6i-47" source="VvkMW7oBKD9trK85sW6i-65" target="VvkMW7oBKD9trK85sW6i-55">
          <mxGeometry relative="1" as="geometry" />
        </mxCell>
        <mxCell id="VvkMW7oBKD9trK85sW6i-68" value="类" style="edgeLabel;html=1;align=center;verticalAlign=middle;resizable=0;points=[];opacity=30;strokeColor=default;fontFamily=Helvetica;fontSize=12;fontColor=default;fontStyle=1;fillColor=default;" vertex="1" connectable="0" parent="VvkMW7oBKD9trK85sW6i-67">
          <mxGeometry x="0.1023" y="-11" relative="1" as="geometry">
            <mxPoint as="offset" />
          </mxGeometry>
        </mxCell>
        <mxCell id="VvkMW7oBKD9trK85sW6i-65" value="KimeraVioRos" style="rounded=1;whiteSpace=wrap;html=1;" vertex="1" parent="VvkMW7oBKD9trK85sW6i-47">
          <mxGeometry x="218.66666666666674" y="100" width="102.67" height="20" as="geometry" />
        </mxCell>
        <mxCell id="VvkMW7oBKD9trK85sW6i-72" style="edgeStyle=orthogonalEdgeStyle;shape=connector;curved=1;rounded=0;orthogonalLoop=1;jettySize=auto;html=1;exitX=0.5;exitY=1;exitDx=0;exitDy=0;entryX=0.5;entryY=0;entryDx=0;entryDy=0;strokeColor=default;align=center;verticalAlign=middle;fontFamily=Helvetica;fontSize=12;fontColor=default;fontStyle=1;labelBackgroundColor=default;endArrow=classic;" edge="1" parent="VvkMW7oBKD9trK85sW6i-47" source="VvkMW7oBKD9trK85sW6i-69" target="VvkMW7oBKD9trK85sW6i-71">
          <mxGeometry relative="1" as="geometry" />
        </mxCell>
        <mxCell id="VvkMW7oBKD9trK85sW6i-73" value="&lt;span style=&quot;font-weight: normal;&quot;&gt;创建指针&lt;/span&gt;" style="edgeLabel;html=1;align=center;verticalAlign=middle;resizable=0;points=[];opacity=30;strokeColor=default;fontFamily=Helvetica;fontSize=12;fontColor=default;fontStyle=1;fillColor=default;" vertex="1" connectable="0" parent="VvkMW7oBKD9trK85sW6i-72">
          <mxGeometry x="-0.2229" y="-6" relative="1" as="geometry">
            <mxPoint x="-32" y="-3" as="offset" />
          </mxGeometry>
        </mxCell>
        <mxCell id="VvkMW7oBKD9trK85sW6i-75" style="edgeStyle=orthogonalEdgeStyle;shape=connector;curved=1;rounded=0;orthogonalLoop=1;jettySize=auto;html=1;exitX=0.5;exitY=1;exitDx=0;exitDy=0;entryX=0.5;entryY=0;entryDx=0;entryDy=0;strokeColor=default;align=center;verticalAlign=middle;fontFamily=Helvetica;fontSize=12;fontColor=default;fontStyle=1;labelBackgroundColor=default;endArrow=classic;" edge="1" parent="VvkMW7oBKD9trK85sW6i-47" source="VvkMW7oBKD9trK85sW6i-69" target="VvkMW7oBKD9trK85sW6i-74">
          <mxGeometry relative="1" as="geometry" />
        </mxCell>
        <mxCell id="VvkMW7oBKD9trK85sW6i-69" value="runKimeraVIO()" style="rounded=1;whiteSpace=wrap;html=1;" vertex="1" parent="VvkMW7oBKD9trK85sW6i-47">
          <mxGeometry x="51.16666666666667" y="240" width="102.67" height="20" as="geometry" />
        </mxCell>
        <mxCell id="VvkMW7oBKD9trK85sW6i-71" value="vio_pipeline_" style="ellipse;whiteSpace=wrap;html=1;" vertex="1" parent="VvkMW7oBKD9trK85sW6i-47">
          <mxGeometry x="20" y="290" width="88.5" height="30" as="geometry" />
        </mxCell>
        <mxCell id="VvkMW7oBKD9trK85sW6i-74" value="spin()" style="rounded=1;whiteSpace=wrap;html=1;" vertex="1" parent="VvkMW7oBKD9trK85sW6i-47">
          <mxGeometry x="146.75" y="300" width="50" height="20" as="geometry" />
        </mxCell>
        <mxCell id="VvkMW7oBKD9trK85sW6i-79" style="edgeStyle=orthogonalEdgeStyle;shape=connector;curved=1;rounded=0;orthogonalLoop=1;jettySize=auto;html=1;exitX=0.5;exitY=1;exitDx=0;exitDy=0;entryX=0.5;entryY=0;entryDx=0;entryDy=0;strokeColor=default;align=center;verticalAlign=middle;fontFamily=Helvetica;fontSize=12;fontColor=default;fontStyle=1;labelBackgroundColor=default;endArrow=classic;dashed=1;" edge="1" parent="VvkMW7oBKD9trK85sW6i-47" source="VvkMW7oBKD9trK85sW6i-77" target="VvkMW7oBKD9trK85sW6i-78">
          <mxGeometry relative="1" as="geometry" />
        </mxCell>
        <mxCell id="VvkMW7oBKD9trK85sW6i-77" value="RosDataProviderInterface.h" style="shape=hexagon;perimeter=hexagonPerimeter2;whiteSpace=wrap;html=1;fixedSize=1;" vertex="1" parent="VvkMW7oBKD9trK85sW6i-47">
          <mxGeometry x="351" y="40" width="179" height="20" as="geometry" />
        </mxCell>
        <mxCell id="VvkMW7oBKD9trK85sW6i-78" value="RosDataProviderInterface" style="rounded=1;whiteSpace=wrap;html=1;" vertex="1" parent="VvkMW7oBKD9trK85sW6i-47">
          <mxGeometry x="365.08000000000004" y="100" width="150.83" height="20" as="geometry" />
        </mxCell>
        <mxCell id="VvkMW7oBKD9trK85sW6i-80" value="spin()" style="rounded=1;whiteSpace=wrap;html=1;" vertex="1" parent="VvkMW7oBKD9trK85sW6i-47">
          <mxGeometry x="90" y="370" width="50" height="20" as="geometry" />
        </mxCell>
        <mxCell id="VvkMW7oBKD9trK85sW6i-163" style="edgeStyle=orthogonalEdgeStyle;shape=connector;curved=1;rounded=0;orthogonalLoop=1;jettySize=auto;html=1;exitX=0.5;exitY=1;exitDx=0;exitDy=0;entryX=0.5;entryY=0;entryDx=0;entryDy=0;strokeColor=default;align=center;verticalAlign=middle;fontFamily=Helvetica;fontSize=12;fontColor=default;fontStyle=1;labelBackgroundColor=default;endArrow=classic;" edge="1" parent="VvkMW7oBKD9trK85sW6i-47" source="VvkMW7oBKD9trK85sW6i-106" target="VvkMW7oBKD9trK85sW6i-162">
          <mxGeometry relative="1" as="geometry" />
        </mxCell>
        <mxCell id="VvkMW7oBKD9trK85sW6i-106" value="spinViz()" style="rounded=1;whiteSpace=wrap;html=1;" vertex="1" parent="VvkMW7oBKD9trK85sW6i-47">
          <mxGeometry x="210" y="370" width="50" height="20" as="geometry" />
        </mxCell>
        <mxCell id="VvkMW7oBKD9trK85sW6i-165" style="edgeStyle=orthogonalEdgeStyle;shape=connector;curved=1;rounded=0;orthogonalLoop=1;jettySize=auto;html=1;exitX=0.5;exitY=1;exitDx=0;exitDy=0;entryX=0.5;entryY=0;entryDx=0;entryDy=0;strokeColor=default;align=center;verticalAlign=middle;fontFamily=Helvetica;fontSize=12;fontColor=default;fontStyle=1;labelBackgroundColor=default;endArrow=classic;" edge="1" parent="VvkMW7oBKD9trK85sW6i-47" source="VvkMW7oBKD9trK85sW6i-107" target="VvkMW7oBKD9trK85sW6i-164">
          <mxGeometry relative="1" as="geometry" />
        </mxCell>
        <mxCell id="VvkMW7oBKD9trK85sW6i-107" value="spin()" style="rounded=1;whiteSpace=wrap;html=1;" vertex="1" parent="VvkMW7oBKD9trK85sW6i-47">
          <mxGeometry x="334.59000000000003" y="370" width="50" height="20" as="geometry" />
        </mxCell>
        <mxCell id="VvkMW7oBKD9trK85sW6i-112" style="edgeStyle=orthogonalEdgeStyle;shape=connector;curved=1;rounded=0;orthogonalLoop=1;jettySize=auto;html=1;exitX=0.5;exitY=1;exitDx=0;exitDy=0;entryX=0.75;entryY=0;entryDx=0;entryDy=0;strokeColor=default;align=center;verticalAlign=middle;fontFamily=Helvetica;fontSize=12;fontColor=default;fontStyle=1;labelBackgroundColor=default;endArrow=classic;" edge="1" parent="VvkMW7oBKD9trK85sW6i-47" source="VvkMW7oBKD9trK85sW6i-74" target="VvkMW7oBKD9trK85sW6i-80">
          <mxGeometry relative="1" as="geometry" />
        </mxCell>
        <mxCell id="VvkMW7oBKD9trK85sW6i-116" style="edgeStyle=orthogonalEdgeStyle;shape=connector;curved=1;rounded=0;orthogonalLoop=1;jettySize=auto;html=1;exitX=0.5;exitY=1;exitDx=0;exitDy=0;entryX=0.5;entryY=0;entryDx=0;entryDy=0;strokeColor=default;align=center;verticalAlign=middle;fontFamily=Helvetica;fontSize=12;fontColor=default;fontStyle=1;labelBackgroundColor=default;endArrow=classic;dashed=1;" edge="1" parent="VvkMW7oBKD9trK85sW6i-47" source="VvkMW7oBKD9trK85sW6i-78" target="VvkMW7oBKD9trK85sW6i-80">
          <mxGeometry relative="1" as="geometry" />
        </mxCell>
        <mxCell id="VvkMW7oBKD9trK85sW6i-113" style="edgeStyle=orthogonalEdgeStyle;shape=connector;curved=1;rounded=0;orthogonalLoop=1;jettySize=auto;html=1;exitX=0.5;exitY=1;exitDx=0;exitDy=0;entryX=0.5;entryY=0;entryDx=0;entryDy=0;strokeColor=default;align=center;verticalAlign=middle;fontFamily=Helvetica;fontSize=12;fontColor=default;fontStyle=1;labelBackgroundColor=default;endArrow=classic;" edge="1" parent="VvkMW7oBKD9trK85sW6i-47" source="VvkMW7oBKD9trK85sW6i-74" target="VvkMW7oBKD9trK85sW6i-106">
          <mxGeometry relative="1" as="geometry" />
        </mxCell>
        <mxCell id="VvkMW7oBKD9trK85sW6i-114" style="edgeStyle=orthogonalEdgeStyle;shape=connector;curved=1;rounded=0;orthogonalLoop=1;jettySize=auto;html=1;exitX=0.5;exitY=1;exitDx=0;exitDy=0;entryX=0.5;entryY=0;entryDx=0;entryDy=0;strokeColor=default;align=center;verticalAlign=middle;fontFamily=Helvetica;fontSize=12;fontColor=default;fontStyle=1;labelBackgroundColor=default;endArrow=classic;" edge="1" parent="VvkMW7oBKD9trK85sW6i-47" source="VvkMW7oBKD9trK85sW6i-74" target="VvkMW7oBKD9trK85sW6i-107">
          <mxGeometry relative="1" as="geometry" />
        </mxCell>
        <mxCell id="VvkMW7oBKD9trK85sW6i-162" value="spin()" style="rounded=1;whiteSpace=wrap;html=1;" vertex="1" parent="VvkMW7oBKD9trK85sW6i-47">
          <mxGeometry x="210" y="410" width="50" height="20" as="geometry" />
        </mxCell>
        <mxCell id="VvkMW7oBKD9trK85sW6i-164" value="spin()" style="rounded=1;whiteSpace=wrap;html=1;" vertex="1" parent="VvkMW7oBKD9trK85sW6i-47">
          <mxGeometry x="334.59000000000003" y="410" width="50" height="20" as="geometry" />
        </mxCell>
        <mxCell id="VvkMW7oBKD9trK85sW6i-166" value="getinputPacket()" style="rounded=1;whiteSpace=wrap;html=1;" vertex="1" parent="VvkMW7oBKD9trK85sW6i-47">
          <mxGeometry x="321.34000000000003" y="450" width="100" height="20" as="geometry" />
        </mxCell>
        <mxCell id="VvkMW7oBKD9trK85sW6i-167" style="edgeStyle=orthogonalEdgeStyle;shape=connector;curved=1;rounded=0;orthogonalLoop=1;jettySize=auto;html=1;exitX=0.5;exitY=1;exitDx=0;exitDy=0;entryX=0.373;entryY=-0.15;entryDx=0;entryDy=0;entryPerimeter=0;strokeColor=default;align=center;verticalAlign=middle;fontFamily=Helvetica;fontSize=12;fontColor=default;fontStyle=1;labelBackgroundColor=default;endArrow=classic;" edge="1" parent="VvkMW7oBKD9trK85sW6i-47" source="VvkMW7oBKD9trK85sW6i-164" target="VvkMW7oBKD9trK85sW6i-166">
          <mxGeometry relative="1" as="geometry" />
        </mxCell>
        <mxCell id="VvkMW7oBKD9trK85sW6i-168" value="&lt;span style=&quot;font-weight: 400; text-wrap-mode: wrap;&quot;&gt;DataProviderInterface&lt;/span&gt;&lt;div&gt;&lt;span style=&quot;font-weight: 400; text-wrap-mode: wrap;&quot;&gt;1 检查回调函数&lt;/span&gt;&lt;/div&gt;&lt;div&gt;&lt;span style=&quot;font-weight: 400; text-wrap-mode: wrap;&quot;&gt;2 传递数据-触发回调&lt;/span&gt;&lt;/div&gt;" style="text;html=1;align=center;verticalAlign=middle;resizable=0;points=[];autosize=1;strokeColor=none;fillColor=none;fontFamily=Helvetica;fontSize=12;fontColor=default;fontStyle=1;" vertex="1" parent="VvkMW7oBKD9trK85sW6i-47">
          <mxGeometry x="45" y="390" width="140" height="60" as="geometry" />
        </mxCell>
        <mxCell id="VvkMW7oBKD9trK85sW6i-246" style="edgeStyle=orthogonalEdgeStyle;shape=connector;curved=1;rounded=0;orthogonalLoop=1;jettySize=auto;html=1;exitX=0;exitY=0.5;exitDx=0;exitDy=0;entryX=0.249;entryY=1.047;entryDx=0;entryDy=0;entryPerimeter=0;strokeColor=default;align=center;verticalAlign=middle;fontFamily=Helvetica;fontSize=12;fontColor=default;fontStyle=1;labelBackgroundColor=default;endArrow=classic;" edge="1" parent="VvkMW7oBKD9trK85sW6i-47" source="VvkMW7oBKD9trK85sW6i-166" target="VvkMW7oBKD9trK85sW6i-71">
          <mxGeometry relative="1" as="geometry">
            <Array as="points">
              <mxPoint x="321" y="470" />
              <mxPoint x="10" y="470" />
              <mxPoint x="10" y="321" />
            </Array>
          </mxGeometry>
        </mxCell>
        <mxCell id="VvkMW7oBKD9trK85sW6i-48" value="" style="group" vertex="1" connectable="0" parent="1">
          <mxGeometry x="420" y="600" width="440" height="380" as="geometry" />
        </mxCell>
        <mxCell id="VvkMW7oBKD9trK85sW6i-27" value="" style="swimlane;startSize=0;" vertex="1" parent="VvkMW7oBKD9trK85sW6i-48">
          <mxGeometry x="14.666666666666668" width="425.33333333333337" height="380" as="geometry" />
        </mxCell>
        <mxCell id="VvkMW7oBKD9trK85sW6i-32" style="edgeStyle=orthogonalEdgeStyle;rounded=0;orthogonalLoop=1;jettySize=auto;html=1;exitX=0.5;exitY=1;exitDx=0;exitDy=0;entryX=0.5;entryY=0;entryDx=0;entryDy=0;curved=1;" edge="1" parent="VvkMW7oBKD9trK85sW6i-27" source="VvkMW7oBKD9trK85sW6i-29" target="VvkMW7oBKD9trK85sW6i-31">
          <mxGeometry relative="1" as="geometry" />
        </mxCell>
        <mxCell id="VvkMW7oBKD9trK85sW6i-33" value="&lt;b&gt;节点:dpgo_ros_node&lt;/b&gt;" style="edgeLabel;html=1;align=center;verticalAlign=middle;resizable=0;points=[];" vertex="1" connectable="0" parent="VvkMW7oBKD9trK85sW6i-32">
          <mxGeometry x="-0.0769" y="1" relative="1" as="geometry">
            <mxPoint as="offset" />
          </mxGeometry>
        </mxCell>
        <mxCell id="VvkMW7oBKD9trK85sW6i-29" value="PGOAgent.launch" style="shape=hexagon;perimeter=hexagonPerimeter2;whiteSpace=wrap;html=1;fixedSize=1;" vertex="1" parent="VvkMW7oBKD9trK85sW6i-27">
          <mxGeometry x="35.33" y="30" width="135.33" height="20" as="geometry" />
        </mxCell>
        <mxCell id="VvkMW7oBKD9trK85sW6i-35" style="edgeStyle=orthogonalEdgeStyle;rounded=0;orthogonalLoop=1;jettySize=auto;html=1;exitX=0.5;exitY=1;exitDx=0;exitDy=0;entryX=0.5;entryY=0;entryDx=0;entryDy=0;" edge="1" parent="VvkMW7oBKD9trK85sW6i-27" source="VvkMW7oBKD9trK85sW6i-31" target="VvkMW7oBKD9trK85sW6i-34">
          <mxGeometry relative="1" as="geometry" />
        </mxCell>
        <mxCell id="VvkMW7oBKD9trK85sW6i-36" value="创建实例" style="edgeLabel;html=1;align=center;verticalAlign=middle;resizable=0;points=[];" vertex="1" connectable="0" parent="VvkMW7oBKD9trK85sW6i-35">
          <mxGeometry x="-0.16" y="2" relative="1" as="geometry">
            <mxPoint as="offset" />
          </mxGeometry>
        </mxCell>
        <mxCell id="VvkMW7oBKD9trK85sW6i-31" value="PGOAgentROSNode.cpp" style="shape=hexagon;perimeter=hexagonPerimeter2;whiteSpace=wrap;html=1;fixedSize=1;" vertex="1" parent="VvkMW7oBKD9trK85sW6i-27">
          <mxGeometry x="52.33" y="100" width="174" height="20" as="geometry" />
        </mxCell>
        <mxCell id="VvkMW7oBKD9trK85sW6i-38" style="edgeStyle=orthogonalEdgeStyle;rounded=0;orthogonalLoop=1;jettySize=auto;html=1;exitX=0.5;exitY=1;exitDx=0;exitDy=0;entryX=0.5;entryY=0;entryDx=0;entryDy=0;" edge="1" parent="VvkMW7oBKD9trK85sW6i-27" source="VvkMW7oBKD9trK85sW6i-34" target="VvkMW7oBKD9trK85sW6i-37">
          <mxGeometry relative="1" as="geometry" />
        </mxCell>
        <mxCell id="VvkMW7oBKD9trK85sW6i-34" value="agent" style="ellipse;whiteSpace=wrap;html=1;" vertex="1" parent="VvkMW7oBKD9trK85sW6i-27">
          <mxGeometry x="105.63" y="170" width="67.4" height="30" as="geometry" />
        </mxCell>
        <mxCell id="VvkMW7oBKD9trK85sW6i-43" style="edgeStyle=orthogonalEdgeStyle;rounded=0;orthogonalLoop=1;jettySize=auto;html=1;exitX=0.5;exitY=1;exitDx=0;exitDy=0;entryX=0.5;entryY=0;entryDx=0;entryDy=0;" edge="1" parent="VvkMW7oBKD9trK85sW6i-27" source="VvkMW7oBKD9trK85sW6i-37" target="VvkMW7oBKD9trK85sW6i-42">
          <mxGeometry relative="1" as="geometry" />
        </mxCell>
        <mxCell id="VvkMW7oBKD9trK85sW6i-37" value="runOnce()" style="rounded=1;whiteSpace=wrap;html=1;" vertex="1" parent="VvkMW7oBKD9trK85sW6i-27">
          <mxGeometry x="88" y="250" width="102.67" height="20" as="geometry" />
        </mxCell>
        <mxCell id="VvkMW7oBKD9trK85sW6i-46" value="" style="group" vertex="1" connectable="0" parent="VvkMW7oBKD9trK85sW6i-27">
          <mxGeometry x="29.333333333333336" y="300" width="249.33333333333334" height="70" as="geometry" />
        </mxCell>
        <mxCell id="VvkMW7oBKD9trK85sW6i-45" value="同步模式每个ROS spin判断&lt;div&gt;是否迭代后端优化&lt;/div&gt;" style="text;html=1;align=center;verticalAlign=middle;resizable=0;points=[];autosize=1;strokeColor=none;fillColor=none;" vertex="1" parent="VvkMW7oBKD9trK85sW6i-46">
          <mxGeometry x="27" y="20" width="170" height="40" as="geometry" />
        </mxCell>
        <mxCell id="VvkMW7oBKD9trK85sW6i-61" style="edgeStyle=orthogonalEdgeStyle;shape=connector;curved=1;rounded=0;orthogonalLoop=1;jettySize=auto;html=1;exitX=0.5;exitY=1;exitDx=0;exitDy=0;entryX=0.5;entryY=0;entryDx=0;entryDy=0;strokeColor=default;align=center;verticalAlign=middle;fontFamily=Helvetica;fontSize=12;fontColor=default;fontStyle=1;labelBackgroundColor=default;endArrow=classic;dashed=1;" edge="1" parent="VvkMW7oBKD9trK85sW6i-27" source="VvkMW7oBKD9trK85sW6i-58" target="VvkMW7oBKD9trK85sW6i-60">
          <mxGeometry relative="1" as="geometry" />
        </mxCell>
        <mxCell id="VvkMW7oBKD9trK85sW6i-58" value="PGOAgentROS.h" style="shape=hexagon;perimeter=hexagonPerimeter2;whiteSpace=wrap;html=1;fixedSize=1;" vertex="1" parent="VvkMW7oBKD9trK85sW6i-27">
          <mxGeometry x="253.34" y="50" width="134.66" height="20" as="geometry" />
        </mxCell>
        <mxCell id="VvkMW7oBKD9trK85sW6i-62" style="edgeStyle=orthogonalEdgeStyle;shape=connector;curved=1;rounded=0;orthogonalLoop=1;jettySize=auto;html=1;exitX=0.5;exitY=1;exitDx=0;exitDy=0;entryX=1;entryY=0.5;entryDx=0;entryDy=0;strokeColor=default;align=center;verticalAlign=middle;fontFamily=Helvetica;fontSize=12;fontColor=default;fontStyle=1;labelBackgroundColor=default;endArrow=classic;" edge="1" parent="VvkMW7oBKD9trK85sW6i-27" source="VvkMW7oBKD9trK85sW6i-60" target="VvkMW7oBKD9trK85sW6i-34">
          <mxGeometry relative="1" as="geometry" />
        </mxCell>
        <mxCell id="VvkMW7oBKD9trK85sW6i-63" value="类" style="edgeLabel;html=1;align=center;verticalAlign=middle;resizable=0;points=[];opacity=30;strokeColor=default;fontFamily=Helvetica;fontSize=12;fontColor=default;fontStyle=1;fillColor=default;" vertex="1" connectable="0" parent="VvkMW7oBKD9trK85sW6i-62">
          <mxGeometry x="-0.0316" y="-4" relative="1" as="geometry">
            <mxPoint as="offset" />
          </mxGeometry>
        </mxCell>
        <mxCell id="VvkMW7oBKD9trK85sW6i-60" value="PGOAgentROS" style="rounded=1;whiteSpace=wrap;html=1;" vertex="1" parent="VvkMW7oBKD9trK85sW6i-27">
          <mxGeometry x="269.34" y="130" width="102.67" height="20" as="geometry" />
        </mxCell>
        <mxCell id="VvkMW7oBKD9trK85sW6i-28" value="dpgo_ros/" style="text;html=1;align=center;verticalAlign=middle;resizable=0;points=[];autosize=1;strokeColor=none;fillColor=none;" vertex="1" parent="VvkMW7oBKD9trK85sW6i-27">
          <mxGeometry x="8.003333333333373" width="80" height="30" as="geometry" />
        </mxCell>
        <mxCell id="VvkMW7oBKD9trK85sW6i-42" value="runOnceSynchronous()" style="rounded=1;whiteSpace=wrap;html=1;" vertex="1" parent="VvkMW7oBKD9trK85sW6i-27">
          <mxGeometry x="70.33" y="300" width="138" height="20" as="geometry" />
        </mxCell>
        <mxCell id="VvkMW7oBKD9trK85sW6i-51" style="edgeStyle=orthogonalEdgeStyle;rounded=0;orthogonalLoop=1;jettySize=auto;html=1;exitX=1;exitY=0.5;exitDx=0;exitDy=0;entryX=0;entryY=0.5;entryDx=0;entryDy=0;curved=1;" edge="1" parent="1" source="VvkMW7oBKD9trK85sW6i-8" target="VvkMW7oBKD9trK85sW6i-50">
          <mxGeometry relative="1" as="geometry" />
        </mxCell>
        <mxCell id="VvkMW7oBKD9trK85sW6i-76" style="edgeStyle=orthogonalEdgeStyle;shape=connector;curved=1;rounded=0;orthogonalLoop=1;jettySize=auto;html=1;exitX=1;exitY=0.5;exitDx=0;exitDy=0;entryX=0;entryY=0.5;entryDx=0;entryDy=0;strokeColor=default;align=center;verticalAlign=middle;fontFamily=Helvetica;fontSize=12;fontColor=default;fontStyle=1;labelBackgroundColor=default;endArrow=classic;" edge="1" parent="1" source="VvkMW7oBKD9trK85sW6i-17" target="VvkMW7oBKD9trK85sW6i-29">
          <mxGeometry relative="1" as="geometry" />
        </mxCell>
        <mxCell id="VvkMW7oBKD9trK85sW6i-117" value="" style="swimlane;startSize=0;opacity=30;strokeColor=default;align=center;verticalAlign=middle;fontFamily=Helvetica;fontSize=12;fontColor=default;fontStyle=1;fillColor=default;" vertex="1" parent="1">
          <mxGeometry x="950" y="120" width="1160" height="390" as="geometry" />
        </mxCell>
        <mxCell id="VvkMW7oBKD9trK85sW6i-119" value="&lt;span style=&quot;font-weight: normal;&quot;&gt;kimera_vio&lt;/span&gt;/" style="text;html=1;align=center;verticalAlign=middle;resizable=0;points=[];autosize=1;strokeColor=none;fillColor=none;fontFamily=Helvetica;fontSize=12;fontColor=default;fontStyle=1;" vertex="1" parent="VvkMW7oBKD9trK85sW6i-117">
          <mxGeometry x="10.500000000000009" y="8" width="80" height="30" as="geometry" />
        </mxCell>
        <mxCell id="VvkMW7oBKD9trK85sW6i-125" style="edgeStyle=orthogonalEdgeStyle;shape=connector;curved=1;rounded=0;orthogonalLoop=1;jettySize=auto;html=1;exitX=0.5;exitY=1;exitDx=0;exitDy=0;entryX=0.5;entryY=0;entryDx=0;entryDy=0;strokeColor=default;align=center;verticalAlign=middle;fontFamily=Helvetica;fontSize=12;fontColor=default;fontStyle=1;labelBackgroundColor=default;endArrow=classic;dashed=1;" edge="1" parent="VvkMW7oBKD9trK85sW6i-117" source="VvkMW7oBKD9trK85sW6i-120" target="VvkMW7oBKD9trK85sW6i-123">
          <mxGeometry relative="1" as="geometry" />
        </mxCell>
        <mxCell id="VvkMW7oBKD9trK85sW6i-131" style="edgeStyle=orthogonalEdgeStyle;shape=connector;curved=1;rounded=0;orthogonalLoop=1;jettySize=auto;html=1;exitX=0.5;exitY=1;exitDx=0;exitDy=0;entryX=0.5;entryY=0;entryDx=0;entryDy=0;strokeColor=default;align=center;verticalAlign=middle;fontFamily=Helvetica;fontSize=12;fontColor=default;fontStyle=1;labelBackgroundColor=default;endArrow=classic;dashed=1;" edge="1" parent="VvkMW7oBKD9trK85sW6i-117" source="VvkMW7oBKD9trK85sW6i-120" target="VvkMW7oBKD9trK85sW6i-130">
          <mxGeometry relative="1" as="geometry" />
        </mxCell>
        <mxCell id="VvkMW7oBKD9trK85sW6i-135" style="edgeStyle=orthogonalEdgeStyle;shape=connector;curved=1;rounded=0;orthogonalLoop=1;jettySize=auto;html=1;exitX=0.5;exitY=1;exitDx=0;exitDy=0;entryX=0.5;entryY=0;entryDx=0;entryDy=0;strokeColor=default;align=center;verticalAlign=middle;fontFamily=Helvetica;fontSize=12;fontColor=default;fontStyle=1;labelBackgroundColor=default;endArrow=classic;dashed=1;" edge="1" parent="VvkMW7oBKD9trK85sW6i-117" source="VvkMW7oBKD9trK85sW6i-120" target="VvkMW7oBKD9trK85sW6i-134">
          <mxGeometry relative="1" as="geometry" />
        </mxCell>
        <mxCell id="VvkMW7oBKD9trK85sW6i-120" value="dataprovider" style="rounded=0;whiteSpace=wrap;html=1;" vertex="1" parent="VvkMW7oBKD9trK85sW6i-117">
          <mxGeometry x="210" y="50" width="80" height="20" as="geometry" />
        </mxCell>
        <mxCell id="VvkMW7oBKD9trK85sW6i-175" style="edgeStyle=orthogonalEdgeStyle;shape=connector;curved=1;rounded=0;orthogonalLoop=1;jettySize=auto;html=1;exitX=0.5;exitY=1;exitDx=0;exitDy=0;entryX=0.5;entryY=0;entryDx=0;entryDy=0;strokeColor=default;align=center;verticalAlign=middle;fontFamily=Helvetica;fontSize=12;fontColor=default;fontStyle=1;labelBackgroundColor=default;endArrow=classic;dashed=1;" edge="1" parent="VvkMW7oBKD9trK85sW6i-117" source="VvkMW7oBKD9trK85sW6i-121" target="VvkMW7oBKD9trK85sW6i-172">
          <mxGeometry relative="1" as="geometry" />
        </mxCell>
        <mxCell id="VvkMW7oBKD9trK85sW6i-176" style="edgeStyle=orthogonalEdgeStyle;shape=connector;curved=1;rounded=0;orthogonalLoop=1;jettySize=auto;html=1;exitX=0.5;exitY=1;exitDx=0;exitDy=0;entryX=0.5;entryY=0;entryDx=0;entryDy=0;strokeColor=default;align=center;verticalAlign=middle;fontFamily=Helvetica;fontSize=12;fontColor=default;fontStyle=1;labelBackgroundColor=default;endArrow=classic;dashed=1;" edge="1" parent="VvkMW7oBKD9trK85sW6i-117" source="VvkMW7oBKD9trK85sW6i-121" target="VvkMW7oBKD9trK85sW6i-174">
          <mxGeometry relative="1" as="geometry" />
        </mxCell>
        <mxCell id="VvkMW7oBKD9trK85sW6i-177" style="edgeStyle=orthogonalEdgeStyle;shape=connector;curved=1;rounded=0;orthogonalLoop=1;jettySize=auto;html=1;exitX=0.5;exitY=1;exitDx=0;exitDy=0;entryX=0.5;entryY=0;entryDx=0;entryDy=0;strokeColor=default;align=center;verticalAlign=middle;fontFamily=Helvetica;fontSize=12;fontColor=default;fontStyle=1;labelBackgroundColor=default;endArrow=classic;dashed=1;" edge="1" parent="VvkMW7oBKD9trK85sW6i-117" source="VvkMW7oBKD9trK85sW6i-121" target="VvkMW7oBKD9trK85sW6i-173">
          <mxGeometry relative="1" as="geometry" />
        </mxCell>
        <mxCell id="VvkMW7oBKD9trK85sW6i-121" value="pipeline" style="rounded=0;whiteSpace=wrap;html=1;" vertex="1" parent="VvkMW7oBKD9trK85sW6i-117">
          <mxGeometry x="740" y="50" width="80" height="20" as="geometry" />
        </mxCell>
        <mxCell id="VvkMW7oBKD9trK85sW6i-127" style="edgeStyle=orthogonalEdgeStyle;shape=connector;curved=1;rounded=0;orthogonalLoop=1;jettySize=auto;html=1;exitX=0.5;exitY=1;exitDx=0;exitDy=0;entryX=0.5;entryY=0;entryDx=0;entryDy=0;strokeColor=default;align=center;verticalAlign=middle;fontFamily=Helvetica;fontSize=12;fontColor=default;fontStyle=1;labelBackgroundColor=default;endArrow=classic;dashed=1;" edge="1" parent="VvkMW7oBKD9trK85sW6i-117" source="VvkMW7oBKD9trK85sW6i-123" target="VvkMW7oBKD9trK85sW6i-126">
          <mxGeometry relative="1" as="geometry" />
        </mxCell>
        <mxCell id="VvkMW7oBKD9trK85sW6i-123" value="DataProviderInterface.h" style="shape=hexagon;perimeter=hexagonPerimeter2;whiteSpace=wrap;html=1;fixedSize=1;" vertex="1" parent="VvkMW7oBKD9trK85sW6i-117">
          <mxGeometry x="10.5" y="110" width="159.5" height="20" as="geometry" />
        </mxCell>
        <mxCell id="VvkMW7oBKD9trK85sW6i-126" value="DataProviderInterface" style="rounded=1;whiteSpace=wrap;html=1;" vertex="1" parent="VvkMW7oBKD9trK85sW6i-117">
          <mxGeometry x="24.71" y="160" width="131.08" height="20" as="geometry" />
        </mxCell>
        <mxCell id="VvkMW7oBKD9trK85sW6i-133" style="edgeStyle=orthogonalEdgeStyle;shape=connector;curved=1;rounded=0;orthogonalLoop=1;jettySize=auto;html=1;exitX=0.5;exitY=1;exitDx=0;exitDy=0;entryX=0.5;entryY=0;entryDx=0;entryDy=0;strokeColor=default;align=center;verticalAlign=middle;fontFamily=Helvetica;fontSize=12;fontColor=default;fontStyle=1;labelBackgroundColor=default;endArrow=classic;dashed=1;" edge="1" parent="VvkMW7oBKD9trK85sW6i-117" source="VvkMW7oBKD9trK85sW6i-130" target="VvkMW7oBKD9trK85sW6i-132">
          <mxGeometry relative="1" as="geometry" />
        </mxCell>
        <mxCell id="VvkMW7oBKD9trK85sW6i-130" value="MonoDataProvider.h" style="shape=hexagon;perimeter=hexagonPerimeter2;whiteSpace=wrap;html=1;fixedSize=1;" vertex="1" parent="VvkMW7oBKD9trK85sW6i-117">
          <mxGeometry x="180" y="110" width="140" height="20" as="geometry" />
        </mxCell>
        <mxCell id="VvkMW7oBKD9trK85sW6i-241" style="edgeStyle=orthogonalEdgeStyle;shape=connector;curved=1;rounded=0;orthogonalLoop=1;jettySize=auto;html=1;exitX=0.5;exitY=1;exitDx=0;exitDy=0;entryX=0;entryY=0.5;entryDx=0;entryDy=0;strokeColor=default;align=center;verticalAlign=middle;fontFamily=Helvetica;fontSize=12;fontColor=default;fontStyle=1;labelBackgroundColor=default;endArrow=classic;" edge="1" parent="VvkMW7oBKD9trK85sW6i-117" source="VvkMW7oBKD9trK85sW6i-132" target="VvkMW7oBKD9trK85sW6i-240">
          <mxGeometry relative="1" as="geometry" />
        </mxCell>
        <mxCell id="VvkMW7oBKD9trK85sW6i-132" value="MonoDataProviderModule" style="rounded=1;whiteSpace=wrap;html=1;" vertex="1" parent="VvkMW7oBKD9trK85sW6i-117">
          <mxGeometry x="172.23000000000002" y="160" width="155.54" height="20" as="geometry" />
        </mxCell>
        <mxCell id="VvkMW7oBKD9trK85sW6i-137" style="edgeStyle=orthogonalEdgeStyle;shape=connector;curved=1;rounded=0;orthogonalLoop=1;jettySize=auto;html=1;exitX=0.5;exitY=1;exitDx=0;exitDy=0;entryX=0.5;entryY=0;entryDx=0;entryDy=0;strokeColor=default;align=center;verticalAlign=middle;fontFamily=Helvetica;fontSize=12;fontColor=default;fontStyle=1;labelBackgroundColor=default;endArrow=classic;dashed=1;" edge="1" parent="VvkMW7oBKD9trK85sW6i-117" source="VvkMW7oBKD9trK85sW6i-134" target="VvkMW7oBKD9trK85sW6i-136">
          <mxGeometry relative="1" as="geometry" />
        </mxCell>
        <mxCell id="VvkMW7oBKD9trK85sW6i-134" value="DataProviderModule.h" style="shape=hexagon;perimeter=hexagonPerimeter2;whiteSpace=wrap;html=1;fixedSize=1;" vertex="1" parent="VvkMW7oBKD9trK85sW6i-117">
          <mxGeometry x="327.77" y="110" width="152.23" height="20" as="geometry" />
        </mxCell>
        <mxCell id="VvkMW7oBKD9trK85sW6i-138" style="edgeStyle=orthogonalEdgeStyle;shape=connector;curved=1;rounded=0;orthogonalLoop=1;jettySize=auto;html=1;exitX=0;exitY=0.5;exitDx=0;exitDy=0;entryX=1;entryY=0.5;entryDx=0;entryDy=0;strokeColor=default;align=center;verticalAlign=middle;fontFamily=Helvetica;fontSize=12;fontColor=default;fontStyle=1;labelBackgroundColor=default;endArrow=classic;" edge="1" parent="VvkMW7oBKD9trK85sW6i-117" source="VvkMW7oBKD9trK85sW6i-136" target="VvkMW7oBKD9trK85sW6i-132">
          <mxGeometry relative="1" as="geometry" />
        </mxCell>
        <mxCell id="VvkMW7oBKD9trK85sW6i-139" value="继承" style="edgeLabel;html=1;align=center;verticalAlign=middle;resizable=0;points=[];opacity=30;strokeColor=default;fontFamily=Helvetica;fontSize=12;fontColor=default;fontStyle=1;fillColor=default;" vertex="1" connectable="0" parent="VvkMW7oBKD9trK85sW6i-138">
          <mxGeometry x="0.0722" y="-4" relative="1" as="geometry">
            <mxPoint x="3" y="-5" as="offset" />
          </mxGeometry>
        </mxCell>
        <mxCell id="VvkMW7oBKD9trK85sW6i-136" value="DataProviderModule" style="rounded=1;whiteSpace=wrap;html=1;" vertex="1" parent="VvkMW7oBKD9trK85sW6i-117">
          <mxGeometry x="380" y="160" width="125.54" height="20" as="geometry" />
        </mxCell>
        <mxCell id="VvkMW7oBKD9trK85sW6i-159" style="edgeStyle=orthogonalEdgeStyle;shape=connector;curved=1;rounded=0;orthogonalLoop=1;jettySize=auto;html=1;exitX=0.5;exitY=1;exitDx=0;exitDy=0;entryX=0.5;entryY=0;entryDx=0;entryDy=0;strokeColor=default;align=center;verticalAlign=middle;fontFamily=Helvetica;fontSize=12;fontColor=default;fontStyle=1;labelBackgroundColor=default;endArrow=classic;dashed=1;" edge="1" parent="VvkMW7oBKD9trK85sW6i-117" source="VvkMW7oBKD9trK85sW6i-156" target="VvkMW7oBKD9trK85sW6i-157">
          <mxGeometry relative="1" as="geometry" />
        </mxCell>
        <mxCell id="VvkMW7oBKD9trK85sW6i-156" value="visualizer" style="rounded=0;whiteSpace=wrap;html=1;" vertex="1" parent="VvkMW7oBKD9trK85sW6i-117">
          <mxGeometry x="1080" y="50" width="80" height="20" as="geometry" />
        </mxCell>
        <mxCell id="VvkMW7oBKD9trK85sW6i-161" style="edgeStyle=orthogonalEdgeStyle;shape=connector;curved=1;rounded=0;orthogonalLoop=1;jettySize=auto;html=1;exitX=0.5;exitY=1;exitDx=0;exitDy=0;entryX=0.5;entryY=0;entryDx=0;entryDy=0;strokeColor=default;align=center;verticalAlign=middle;fontFamily=Helvetica;fontSize=12;fontColor=default;fontStyle=1;labelBackgroundColor=default;endArrow=classic;dashed=1;" edge="1" parent="VvkMW7oBKD9trK85sW6i-117" source="VvkMW7oBKD9trK85sW6i-157" target="VvkMW7oBKD9trK85sW6i-160">
          <mxGeometry relative="1" as="geometry" />
        </mxCell>
        <mxCell id="VvkMW7oBKD9trK85sW6i-157" value="DisplayModule.h" style="shape=hexagon;perimeter=hexagonPerimeter2;whiteSpace=wrap;html=1;fixedSize=1;" vertex="1" parent="VvkMW7oBKD9trK85sW6i-117">
          <mxGeometry x="1060" y="110" width="120" height="20" as="geometry" />
        </mxCell>
        <mxCell id="VvkMW7oBKD9trK85sW6i-236" style="edgeStyle=orthogonalEdgeStyle;shape=connector;curved=1;rounded=0;orthogonalLoop=1;jettySize=auto;html=1;exitX=0.25;exitY=1;exitDx=0;exitDy=0;entryX=1;entryY=0.5;entryDx=0;entryDy=0;strokeColor=default;align=center;verticalAlign=middle;fontFamily=Helvetica;fontSize=12;fontColor=default;fontStyle=1;labelBackgroundColor=default;endArrow=classic;" edge="1" parent="VvkMW7oBKD9trK85sW6i-117" source="VvkMW7oBKD9trK85sW6i-160" target="VvkMW7oBKD9trK85sW6i-228">
          <mxGeometry relative="1" as="geometry">
            <Array as="points">
              <mxPoint x="1095" y="330" />
              <mxPoint x="792" y="330" />
            </Array>
          </mxGeometry>
        </mxCell>
        <mxCell id="VvkMW7oBKD9trK85sW6i-160" value="DisplayModule" style="rounded=1;whiteSpace=wrap;html=1;" vertex="1" parent="VvkMW7oBKD9trK85sW6i-117">
          <mxGeometry x="1070" y="154" width="100" height="20" as="geometry" />
        </mxCell>
        <mxCell id="VvkMW7oBKD9trK85sW6i-149" style="edgeStyle=orthogonalEdgeStyle;shape=connector;curved=1;rounded=0;orthogonalLoop=1;jettySize=auto;html=1;exitX=0.5;exitY=1;exitDx=0;exitDy=0;entryX=0.5;entryY=0;entryDx=0;entryDy=0;strokeColor=default;align=center;verticalAlign=middle;fontFamily=Helvetica;fontSize=12;fontColor=default;fontStyle=1;labelBackgroundColor=default;endArrow=classic;" edge="1" parent="VvkMW7oBKD9trK85sW6i-117" source="VvkMW7oBKD9trK85sW6i-142" target="VvkMW7oBKD9trK85sW6i-143">
          <mxGeometry relative="1" as="geometry" />
        </mxCell>
        <mxCell id="VvkMW7oBKD9trK85sW6i-142" value="PipelineModule" style="rounded=1;whiteSpace=wrap;html=1;" vertex="1" parent="VvkMW7oBKD9trK85sW6i-117">
          <mxGeometry x="853.23" y="160" width="105.54" height="20" as="geometry" />
        </mxCell>
        <mxCell id="VvkMW7oBKD9trK85sW6i-151" style="edgeStyle=orthogonalEdgeStyle;shape=connector;curved=1;rounded=0;orthogonalLoop=1;jettySize=auto;html=1;exitX=0.5;exitY=1;exitDx=0;exitDy=0;entryX=0.5;entryY=0;entryDx=0;entryDy=0;strokeColor=default;align=center;verticalAlign=middle;fontFamily=Helvetica;fontSize=12;fontColor=default;fontStyle=1;labelBackgroundColor=default;endArrow=classic;" edge="1" parent="VvkMW7oBKD9trK85sW6i-117" source="VvkMW7oBKD9trK85sW6i-143" target="VvkMW7oBKD9trK85sW6i-144">
          <mxGeometry relative="1" as="geometry" />
        </mxCell>
        <mxCell id="VvkMW7oBKD9trK85sW6i-143" value="MIMOPipelineModule" style="rounded=1;whiteSpace=wrap;html=1;" vertex="1" parent="VvkMW7oBKD9trK85sW6i-117">
          <mxGeometry x="840" y="200" width="132" height="20" as="geometry" />
        </mxCell>
        <mxCell id="VvkMW7oBKD9trK85sW6i-152" style="edgeStyle=orthogonalEdgeStyle;shape=connector;curved=1;rounded=0;orthogonalLoop=1;jettySize=auto;html=1;exitX=0.5;exitY=1;exitDx=0;exitDy=0;entryX=0.5;entryY=0;entryDx=0;entryDy=0;strokeColor=default;align=center;verticalAlign=middle;fontFamily=Helvetica;fontSize=12;fontColor=default;fontStyle=1;labelBackgroundColor=default;endArrow=classic;" edge="1" parent="VvkMW7oBKD9trK85sW6i-117" source="VvkMW7oBKD9trK85sW6i-144" target="VvkMW7oBKD9trK85sW6i-145">
          <mxGeometry relative="1" as="geometry" />
        </mxCell>
        <mxCell id="VvkMW7oBKD9trK85sW6i-179" style="edgeStyle=orthogonalEdgeStyle;shape=connector;curved=1;rounded=0;orthogonalLoop=1;jettySize=auto;html=1;exitX=0;exitY=0.5;exitDx=0;exitDy=0;entryX=0.5;entryY=1;entryDx=0;entryDy=0;strokeColor=default;align=center;verticalAlign=middle;fontFamily=Helvetica;fontSize=12;fontColor=default;fontStyle=1;labelBackgroundColor=default;endArrow=classic;" edge="1" parent="VvkMW7oBKD9trK85sW6i-117" source="VvkMW7oBKD9trK85sW6i-144" target="VvkMW7oBKD9trK85sW6i-136">
          <mxGeometry relative="1" as="geometry" />
        </mxCell>
        <mxCell id="VvkMW7oBKD9trK85sW6i-144" value="MISOPipelineModule" style="rounded=1;whiteSpace=wrap;html=1;" vertex="1" parent="VvkMW7oBKD9trK85sW6i-117">
          <mxGeometry x="840" y="240" width="132" height="20" as="geometry" />
        </mxCell>
        <mxCell id="VvkMW7oBKD9trK85sW6i-187" style="edgeStyle=orthogonalEdgeStyle;shape=connector;curved=1;rounded=0;orthogonalLoop=1;jettySize=auto;html=1;exitX=1;exitY=0.5;exitDx=0;exitDy=0;entryX=0;entryY=0.5;entryDx=0;entryDy=0;strokeColor=default;align=center;verticalAlign=middle;fontFamily=Helvetica;fontSize=12;fontColor=default;fontStyle=1;labelBackgroundColor=default;endArrow=classic;" edge="1" parent="VvkMW7oBKD9trK85sW6i-117" source="VvkMW7oBKD9trK85sW6i-145" target="VvkMW7oBKD9trK85sW6i-160">
          <mxGeometry relative="1" as="geometry" />
        </mxCell>
        <mxCell id="VvkMW7oBKD9trK85sW6i-145" value="SISOPipelineModule" style="rounded=1;whiteSpace=wrap;html=1;" vertex="1" parent="VvkMW7oBKD9trK85sW6i-117">
          <mxGeometry x="840" y="280" width="132" height="20" as="geometry" />
        </mxCell>
        <mxCell id="VvkMW7oBKD9trK85sW6i-153" value="继承" style="text;html=1;align=center;verticalAlign=middle;resizable=0;points=[];autosize=1;strokeColor=none;fillColor=none;fontFamily=Helvetica;fontSize=12;fontColor=default;fontStyle=1;" vertex="1" parent="VvkMW7oBKD9trK85sW6i-117">
          <mxGeometry x="901.23" y="216" width="50" height="30" as="geometry" />
        </mxCell>
        <mxCell id="VvkMW7oBKD9trK85sW6i-154" value="继承" style="text;html=1;align=center;verticalAlign=middle;resizable=0;points=[];autosize=1;strokeColor=none;fillColor=none;fontFamily=Helvetica;fontSize=12;fontColor=default;fontStyle=1;" vertex="1" parent="VvkMW7oBKD9trK85sW6i-117">
          <mxGeometry x="901.23" y="256" width="50" height="30" as="geometry" />
        </mxCell>
        <mxCell id="VvkMW7oBKD9trK85sW6i-150" value="继承" style="text;html=1;align=center;verticalAlign=middle;resizable=0;points=[];autosize=1;strokeColor=none;fillColor=none;fontFamily=Helvetica;fontSize=12;fontColor=default;fontStyle=1;" vertex="1" parent="VvkMW7oBKD9trK85sW6i-117">
          <mxGeometry x="900.23" y="174" width="50" height="30" as="geometry" />
        </mxCell>
        <mxCell id="VvkMW7oBKD9trK85sW6i-170" value="继承" style="text;html=1;align=center;verticalAlign=middle;resizable=0;points=[];autosize=1;strokeColor=none;fillColor=none;fontFamily=Helvetica;fontSize=12;fontColor=default;fontStyle=1;" vertex="1" parent="VvkMW7oBKD9trK85sW6i-117">
          <mxGeometry x="1000" y="149" width="50" height="30" as="geometry" />
        </mxCell>
        <mxCell id="VvkMW7oBKD9trK85sW6i-182" style="edgeStyle=orthogonalEdgeStyle;shape=connector;curved=1;rounded=0;orthogonalLoop=1;jettySize=auto;html=1;exitX=0.5;exitY=1;exitDx=0;exitDy=0;entryX=0.5;entryY=0;entryDx=0;entryDy=0;strokeColor=default;align=center;verticalAlign=middle;fontFamily=Helvetica;fontSize=12;fontColor=default;fontStyle=1;labelBackgroundColor=default;endArrow=classic;dashed=1;" edge="1" parent="VvkMW7oBKD9trK85sW6i-117" source="VvkMW7oBKD9trK85sW6i-172" target="VvkMW7oBKD9trK85sW6i-181">
          <mxGeometry relative="1" as="geometry" />
        </mxCell>
        <mxCell id="VvkMW7oBKD9trK85sW6i-172" value="MonoImuPipeline.h" style="shape=hexagon;perimeter=hexagonPerimeter2;whiteSpace=wrap;html=1;fixedSize=1;" vertex="1" parent="VvkMW7oBKD9trK85sW6i-117">
          <mxGeometry x="520" y="110" width="132.23" height="20" as="geometry" />
        </mxCell>
        <mxCell id="VvkMW7oBKD9trK85sW6i-178" style="edgeStyle=orthogonalEdgeStyle;shape=connector;curved=1;rounded=0;orthogonalLoop=1;jettySize=auto;html=1;exitX=0.5;exitY=1;exitDx=0;exitDy=0;entryX=0.5;entryY=0;entryDx=0;entryDy=0;strokeColor=default;align=center;verticalAlign=middle;fontFamily=Helvetica;fontSize=12;fontColor=default;fontStyle=1;labelBackgroundColor=default;endArrow=classic;dashed=1;" edge="1" parent="VvkMW7oBKD9trK85sW6i-117" source="VvkMW7oBKD9trK85sW6i-173" target="VvkMW7oBKD9trK85sW6i-142">
          <mxGeometry relative="1" as="geometry" />
        </mxCell>
        <mxCell id="VvkMW7oBKD9trK85sW6i-173" value="PipelineModule.h" style="shape=hexagon;perimeter=hexagonPerimeter2;whiteSpace=wrap;html=1;fixedSize=1;" vertex="1" parent="VvkMW7oBKD9trK85sW6i-117">
          <mxGeometry x="844.89" y="110" width="122.23" height="20" as="geometry" />
        </mxCell>
        <mxCell id="VvkMW7oBKD9trK85sW6i-186" style="edgeStyle=orthogonalEdgeStyle;shape=connector;curved=1;rounded=0;orthogonalLoop=1;jettySize=auto;html=1;exitX=0.5;exitY=1;exitDx=0;exitDy=0;entryX=0.5;entryY=0;entryDx=0;entryDy=0;strokeColor=default;align=center;verticalAlign=middle;fontFamily=Helvetica;fontSize=12;fontColor=default;fontStyle=1;labelBackgroundColor=default;endArrow=classic;dashed=1;" edge="1" parent="VvkMW7oBKD9trK85sW6i-117" source="VvkMW7oBKD9trK85sW6i-174" target="VvkMW7oBKD9trK85sW6i-185">
          <mxGeometry relative="1" as="geometry" />
        </mxCell>
        <mxCell id="VvkMW7oBKD9trK85sW6i-174" value="Pipeline.h" style="shape=hexagon;perimeter=hexagonPerimeter2;whiteSpace=wrap;html=1;fixedSize=1;" vertex="1" parent="VvkMW7oBKD9trK85sW6i-117">
          <mxGeometry x="680" y="110" width="92.23" height="20" as="geometry" />
        </mxCell>
        <mxCell id="VvkMW7oBKD9trK85sW6i-180" value="继承" style="text;html=1;align=center;verticalAlign=middle;resizable=0;points=[];autosize=1;strokeColor=none;fillColor=none;fontFamily=Helvetica;fontSize=12;fontColor=default;fontStyle=1;" vertex="1" parent="VvkMW7oBKD9trK85sW6i-117">
          <mxGeometry x="400" y="186" width="50" height="30" as="geometry" />
        </mxCell>
        <mxCell id="VvkMW7oBKD9trK85sW6i-181" value="MonoImuPipeline" style="rounded=1;whiteSpace=wrap;html=1;" vertex="1" parent="VvkMW7oBKD9trK85sW6i-117">
          <mxGeometry x="527.7800000000001" y="159" width="116.66" height="20" as="geometry" />
        </mxCell>
        <mxCell id="VvkMW7oBKD9trK85sW6i-230" style="edgeStyle=orthogonalEdgeStyle;shape=connector;curved=1;rounded=0;orthogonalLoop=1;jettySize=auto;html=1;exitX=0.5;exitY=1;exitDx=0;exitDy=0;entryX=0.5;entryY=0;entryDx=0;entryDy=0;strokeColor=default;align=center;verticalAlign=middle;fontFamily=Helvetica;fontSize=12;fontColor=default;fontStyle=1;labelBackgroundColor=default;endArrow=classic;dashed=1;" edge="1" parent="VvkMW7oBKD9trK85sW6i-117" source="VvkMW7oBKD9trK85sW6i-185" target="VvkMW7oBKD9trK85sW6i-228">
          <mxGeometry relative="1" as="geometry" />
        </mxCell>
        <mxCell id="VvkMW7oBKD9trK85sW6i-239" style="edgeStyle=orthogonalEdgeStyle;shape=connector;curved=1;rounded=0;orthogonalLoop=1;jettySize=auto;html=1;exitX=0;exitY=0.5;exitDx=0;exitDy=0;strokeColor=default;align=center;verticalAlign=middle;fontFamily=Helvetica;fontSize=12;fontColor=default;fontStyle=1;labelBackgroundColor=default;endArrow=classic;dashed=1;" edge="1" parent="VvkMW7oBKD9trK85sW6i-117" source="VvkMW7oBKD9trK85sW6i-185">
          <mxGeometry relative="1" as="geometry">
            <mxPoint x="429.99999999999955" y="840" as="targetPoint" />
            <Array as="points">
              <mxPoint x="660" y="169" />
              <mxPoint x="660" y="840" />
            </Array>
          </mxGeometry>
        </mxCell>
        <mxCell id="VvkMW7oBKD9trK85sW6i-243" style="edgeStyle=orthogonalEdgeStyle;shape=connector;curved=1;rounded=0;orthogonalLoop=1;jettySize=auto;html=1;exitX=0.25;exitY=1;exitDx=0;exitDy=0;entryX=0.5;entryY=0;entryDx=0;entryDy=0;strokeColor=default;align=center;verticalAlign=middle;fontFamily=Helvetica;fontSize=12;fontColor=default;fontStyle=1;labelBackgroundColor=default;endArrow=classic;dashed=1;" edge="1" parent="VvkMW7oBKD9trK85sW6i-117" source="VvkMW7oBKD9trK85sW6i-185" target="VvkMW7oBKD9trK85sW6i-240">
          <mxGeometry relative="1" as="geometry" />
        </mxCell>
        <mxCell id="VvkMW7oBKD9trK85sW6i-185" value="Pipeline" style="rounded=1;whiteSpace=wrap;html=1;" vertex="1" parent="VvkMW7oBKD9trK85sW6i-117">
          <mxGeometry x="691.1100000000001" y="159" width="70" height="20" as="geometry" />
        </mxCell>
        <mxCell id="VvkMW7oBKD9trK85sW6i-228" value="display_module_" style="ellipse;whiteSpace=wrap;html=1;" vertex="1" parent="VvkMW7oBKD9trK85sW6i-117">
          <mxGeometry x="690" y="204" width="102.5" height="30" as="geometry" />
        </mxCell>
        <mxCell id="VvkMW7oBKD9trK85sW6i-231" value="UniquePtr" style="text;html=1;align=center;verticalAlign=middle;resizable=0;points=[];autosize=1;strokeColor=none;fillColor=none;fontFamily=Helvetica;fontSize=12;fontColor=default;fontStyle=1;" vertex="1" parent="VvkMW7oBKD9trK85sW6i-117">
          <mxGeometry x="740" y="174" width="80" height="30" as="geometry" />
        </mxCell>
        <mxCell id="VvkMW7oBKD9trK85sW6i-240" value="data_provider_module_" style="ellipse;whiteSpace=wrap;html=1;" vertex="1" parent="VvkMW7oBKD9trK85sW6i-117">
          <mxGeometry x="364.15000000000003" y="280" width="141.39" height="30" as="geometry" />
        </mxCell>
        <mxCell id="VvkMW7oBKD9trK85sW6i-242" value="类" style="text;html=1;align=center;verticalAlign=middle;resizable=0;points=[];autosize=1;strokeColor=none;fillColor=none;fontFamily=Helvetica;fontSize=12;fontColor=default;fontStyle=1;" vertex="1" parent="VvkMW7oBKD9trK85sW6i-117">
          <mxGeometry x="310" y="260" width="40" height="30" as="geometry" />
        </mxCell>
        <mxCell id="VvkMW7oBKD9trK85sW6i-244" value="UniquePtr" style="text;html=1;align=center;verticalAlign=middle;resizable=0;points=[];autosize=1;strokeColor=none;fillColor=none;fontFamily=Helvetica;fontSize=12;fontColor=default;fontStyle=1;" vertex="1" parent="VvkMW7oBKD9trK85sW6i-117">
          <mxGeometry x="370" y="246" width="80" height="30" as="geometry" />
        </mxCell>
        <mxCell id="VvkMW7oBKD9trK85sW6i-128" style="edgeStyle=orthogonalEdgeStyle;shape=connector;curved=1;rounded=0;orthogonalLoop=1;jettySize=auto;html=1;exitX=0.5;exitY=1;exitDx=0;exitDy=0;entryX=1;entryY=0.5;entryDx=0;entryDy=0;strokeColor=default;align=center;verticalAlign=middle;fontFamily=Helvetica;fontSize=12;fontColor=default;fontStyle=1;labelBackgroundColor=default;endArrow=classic;" edge="1" parent="1" source="VvkMW7oBKD9trK85sW6i-126" target="VvkMW7oBKD9trK85sW6i-78">
          <mxGeometry relative="1" as="geometry" />
        </mxCell>
        <mxCell id="VvkMW7oBKD9trK85sW6i-129" value="继承" style="edgeLabel;html=1;align=center;verticalAlign=middle;resizable=0;points=[];opacity=30;strokeColor=default;fontFamily=Helvetica;fontSize=12;fontColor=default;fontStyle=1;fillColor=default;" vertex="1" connectable="0" parent="VvkMW7oBKD9trK85sW6i-128">
          <mxGeometry x="0.6511" y="-7" relative="1" as="geometry">
            <mxPoint as="offset" />
          </mxGeometry>
        </mxCell>
        <mxCell id="VvkMW7oBKD9trK85sW6i-183" style="edgeStyle=orthogonalEdgeStyle;shape=connector;curved=1;rounded=0;orthogonalLoop=1;jettySize=auto;html=1;exitX=0.5;exitY=1;exitDx=0;exitDy=0;entryX=0;entryY=0.5;entryDx=0;entryDy=0;strokeColor=default;align=center;verticalAlign=middle;fontFamily=Helvetica;fontSize=12;fontColor=default;fontStyle=1;labelBackgroundColor=default;endArrow=classic;" edge="1" parent="1" source="VvkMW7oBKD9trK85sW6i-181" target="VvkMW7oBKD9trK85sW6i-71">
          <mxGeometry relative="1" as="geometry">
            <Array as="points">
              <mxPoint x="1536" y="540" />
              <mxPoint x="950" y="540" />
              <mxPoint x="950" y="905" />
            </Array>
          </mxGeometry>
        </mxCell>
        <mxCell id="VvkMW7oBKD9trK85sW6i-184" value="类" style="text;html=1;align=center;verticalAlign=middle;resizable=0;points=[];autosize=1;strokeColor=none;fillColor=none;fontFamily=Helvetica;fontSize=12;fontColor=default;fontStyle=1;" vertex="1" parent="1">
          <mxGeometry x="940" y="848" width="40" height="30" as="geometry" />
        </mxCell>
        <mxCell id="VvkMW7oBKD9trK85sW6i-229" style="edgeStyle=orthogonalEdgeStyle;shape=connector;curved=1;rounded=0;orthogonalLoop=1;jettySize=auto;html=1;exitX=0;exitY=0.5;exitDx=0;exitDy=0;entryX=0.5;entryY=0;entryDx=0;entryDy=0;strokeColor=default;align=center;verticalAlign=middle;fontFamily=Helvetica;fontSize=12;fontColor=default;fontStyle=1;labelBackgroundColor=default;endArrow=classic;dashed=1;" edge="1" parent="1" source="VvkMW7oBKD9trK85sW6i-185" target="VvkMW7oBKD9trK85sW6i-106">
          <mxGeometry relative="1" as="geometry">
            <Array as="points">
              <mxPoint x="1580" y="289" />
              <mxPoint x="1580" y="910" />
              <mxPoint x="1255" y="910" />
            </Array>
          </mxGeometry>
        </mxCell>
        <mxCell id="VvkMW7oBKD9trK85sW6i-237" value="类" style="text;html=1;align=center;verticalAlign=middle;resizable=0;points=[];autosize=1;strokeColor=none;fillColor=none;fontFamily=Helvetica;fontSize=12;fontColor=default;fontStyle=1;" vertex="1" parent="1">
          <mxGeometry x="1720" y="388" width="40" height="30" as="geometry" />
        </mxCell>
        <mxCell id="VvkMW7oBKD9trK85sW6i-238" style="edgeStyle=orthogonalEdgeStyle;shape=connector;curved=1;rounded=0;orthogonalLoop=1;jettySize=auto;html=1;exitX=0.5;exitY=1;exitDx=0;exitDy=0;entryX=1;entryY=0.5;entryDx=0;entryDy=0;strokeColor=default;align=center;verticalAlign=middle;fontFamily=Helvetica;fontSize=12;fontColor=default;fontStyle=1;labelBackgroundColor=default;endArrow=classic;dashed=1;" edge="1" parent="1" source="VvkMW7oBKD9trK85sW6i-228" target="VvkMW7oBKD9trK85sW6i-162">
          <mxGeometry relative="1" as="geometry">
            <Array as="points">
              <mxPoint x="1691" y="940" />
              <mxPoint x="1300" y="940" />
              <mxPoint x="1300" y="1020" />
            </Array>
          </mxGeometry>
        </mxCell>
        <mxCell id="VvkMW7oBKD9trK85sW6i-245" style="edgeStyle=orthogonalEdgeStyle;shape=connector;curved=1;rounded=0;orthogonalLoop=1;jettySize=auto;html=1;exitX=1;exitY=0.5;exitDx=0;exitDy=0;entryX=1;entryY=0.5;entryDx=0;entryDy=0;strokeColor=default;align=center;verticalAlign=middle;fontFamily=Helvetica;fontSize=12;fontColor=default;fontStyle=1;labelBackgroundColor=default;endArrow=classic;dashed=1;" edge="1" parent="1" source="VvkMW7oBKD9trK85sW6i-240" target="VvkMW7oBKD9trK85sW6i-164">
          <mxGeometry relative="1" as="geometry">
            <Array as="points">
              <mxPoint x="1740" y="415" />
              <mxPoint x="1740" y="1020" />
            </Array>
          </mxGeometry>
        </mxCell>
        <mxCell id="VvkMW7oBKD9trK85sW6i-247" value="TODO" style="text;html=1;align=center;verticalAlign=middle;resizable=0;points=[];autosize=1;strokeColor=none;fillColor=none;fontFamily=Helvetica;fontSize=12;fontColor=default;fontStyle=1;" vertex="1" parent="1">
          <mxGeometry x="1070" y="1068" width="60" height="30" as="geometry" />
        </mxCell>
        <mxCell id="VvkMW7oBKD9trK85sW6i-248" value="TODO" style="text;html=1;align=center;verticalAlign=middle;resizable=0;points=[];autosize=1;strokeColor=none;fillColor=none;fontFamily=Helvetica;fontSize=12;fontColor=default;fontStyle=1;" vertex="1" parent="1">
          <mxGeometry x="1330" y="1068" width="60" height="30" as="geometry" />
        </mxCell>
      </root>
    </mxGraphModel>
  </diagram>
</mxfile>
